<svg width="28" height="28" viewBox="0 0 28 28" fill="none" xmlns="http://www.w3.org/2000/svg">
<path fill-rule="evenodd" clip-rule="evenodd" d="M4.66671 0C3.37804 0 2.33337 1.04467 2.33337 2.33333V25.6667C2.33337 26.9553 3.37804 28 4.66671 28H23.3334C24.622 28 25.6667 26.9553 25.6667 25.6667V0H4.66671ZM25.6667 1.83582e-05V4.66667L21 1.79503e-05L25.6667 1.83582e-05Z" fill="#DDE8ED"/>
<path fill-rule="evenodd" clip-rule="evenodd" d="M21 0V4.66665H25.6667L21 0Z" fill="#899BAA"/>
<path fill-rule="evenodd" clip-rule="evenodd" d="M25.6667 9.3335V4.66683H21.0001L25.6667 9.3335Z" fill="#BFCED9"/>
<rect x="1" y="14" width="26" height="10" rx="1" fill="#4CAF50"/>
<path d="M6.82422 22V16.3125H10.6953V17.0234H7.72266V18.707H10.3203V19.4258H7.72266V21.2891H10.7344V22H6.82422ZM11.0664 22L12.7383 19.6016H12.8438L14.0547 17.7266H14.9922L13.3984 20.0586H13.2969L12.0039 22H11.0664ZM11.1484 17.7266H12.1797L13.375 19.5977H13.4141L15.0664 22H14.043L12.7773 20.0703H12.7422L11.1484 17.7266ZM15.4609 19.9258V19.8008C15.4609 19.1576 15.6497 18.6315 16.0273 18.2227C16.4049 17.8138 16.9023 17.6094 17.5195 17.6094C18.1445 17.6094 18.625 17.8008 18.9609 18.1836C19.2995 18.5664 19.4688 19.082 19.4688 19.7305V20.082H16.0273V19.4258H18.5898L18.5859 19.4219C18.5859 19.112 18.5052 18.8464 18.3438 18.625C18.1823 18.401 17.9062 18.2891 17.5156 18.2891C17.1354 18.2891 16.8438 18.4349 16.6406 18.7266C16.4375 19.0182 16.3359 19.3763 16.3359 19.8008V19.9258C16.3359 20.3503 16.4427 20.7083 16.6562 21C16.8698 21.2917 17.1992 21.4375 17.6445 21.4375C17.9206 21.4375 18.1589 21.3802 18.3594 21.2656C18.5599 21.151 18.7201 21.0143 18.8398 20.8555L19.4062 21.3164C19.2682 21.5169 19.0469 21.7005 18.7422 21.8672C18.4401 22.0339 18.0742 22.1172 17.6445 22.1172C16.9388 22.1172 16.3984 21.9141 16.0234 21.5078C15.6484 21.099 15.4609 20.5716 15.4609 19.9258ZM20.3594 22V16H21.2305V22H20.3594Z" fill="white"/>
</svg>
