<svg width="28" height="28" viewBox="0 0 28 28" fill="none" xmlns="http://www.w3.org/2000/svg">
<path fill-rule="evenodd" clip-rule="evenodd" d="M4.66671 0C3.37804 0 2.33337 1.04467 2.33337 2.33333V25.6667C2.33337 26.9553 3.37804 28 4.66671 28H23.3334C24.622 28 25.6667 26.9553 25.6667 25.6667V0H4.66671ZM25.6667 1.83582e-05V4.66667L21 1.79503e-05L25.6667 1.83582e-05Z" fill="#DDE8ED"/>
<path fill-rule="evenodd" clip-rule="evenodd" d="M21 0V4.66665H25.6667L21 0Z" fill="#899BAA"/>
<path fill-rule="evenodd" clip-rule="evenodd" d="M25.6667 9.3335V4.66683H21.0001L25.6667 9.3335Z" fill="#BFCED9"/>
<rect x="1" y="14" width="26" height="10" rx="1" fill="#FF9F43"/>
<path d="M8.11328 19.3164C8.11328 20.1966 8.35547 20.8841 8.83984 21.3789C9.32682 21.8711 9.97917 22.1172 10.7969 22.1172C11.3333 22.1172 11.7917 22.0365 12.1719 21.875C12.5521 21.7109 12.8411 21.5326 13.0391 21.3398V19.1055H10.7148V19.8164H12.1562V21.0234C11.9661 21.1484 11.7643 21.2396 11.5508 21.2969C11.3398 21.3542 11.0885 21.3828 10.7969 21.3828C10.2344 21.3828 9.79818 21.1992 9.48828 20.832C9.18099 20.4648 9.02734 19.9596 9.02734 19.3164V18.9961C9.02734 18.3529 9.18099 17.8477 9.48828 17.4805C9.79818 17.1133 10.1914 16.9297 10.668 16.9297C11.1471 16.9297 11.5039 17.0404 11.7383 17.2617C11.9753 17.4805 12.1055 17.7148 12.1289 17.9648L12.1328 18.0039H13.0391L13.0352 17.9648C12.9883 17.4831 12.7656 17.0677 12.3672 16.7188C11.9714 16.3698 11.4049 16.1953 10.668 16.1953C9.9388 16.1953 9.33073 16.4427 8.84375 16.9375C8.35677 17.4297 8.11328 18.1159 8.11328 18.9961V19.3164ZM14.0273 22H14.9258V16.3125H14.0273V22ZM16.2773 22H17.1758V19.5781H19.707V18.8672H17.1758V17.0234H20.1016V16.3125H16.2773V22Z" fill="white"/>
</svg>
