<svg width="28" height="28" viewBox="0 0 28 28" fill="none" xmlns="http://www.w3.org/2000/svg">
<path fill-rule="evenodd" clip-rule="evenodd" d="M4.66671 0C3.37804 0 2.33337 1.04467 2.33337 2.33333V25.6667C2.33337 26.9553 3.37804 28 4.66671 28H23.3334C24.622 28 25.6667 26.9553 25.6667 25.6667V0H4.66671ZM25.6667 1.83582e-05V4.66667L21 1.79503e-05L25.6667 1.83582e-05Z" fill="#DDE8ED"/>
<path fill-rule="evenodd" clip-rule="evenodd" d="M21 0V4.66665H25.6667L21 0Z" fill="#899BAA"/>
<path fill-rule="evenodd" clip-rule="evenodd" d="M25.6667 9.3335V4.66683H21.0001L25.6667 9.3335Z" fill="#BFCED9"/>
<rect x="1" y="14" width="26" height="10" rx="1" fill="#D1941C"/>
<path d="M5.96387 21V16.7344H6.6377V18.5332H8.84082V16.7344H9.51465V21H8.84082V19.0693H6.6377V21H5.96387ZM10.083 17.2676V16.7344H13.6191V17.2676H12.1865V21H11.5156V17.2676H10.083ZM14.1904 21V16.7344H15.0869L16.2764 19.7344C16.2998 19.793 16.3232 19.8555 16.3467 19.9219C16.3721 19.9863 16.3945 20.0488 16.4141 20.1094H16.4404C16.46 20.0488 16.4814 19.9863 16.5049 19.9219C16.5283 19.8555 16.5518 19.793 16.5752 19.7344L17.7354 16.7344H18.667V21H18.0078V17.9619C18.0078 17.9014 18.0088 17.834 18.0107 17.7598C18.0146 17.6836 18.0205 17.6152 18.0283 17.5547H17.9961C17.9766 17.6152 17.9541 17.6836 17.9287 17.7598C17.9033 17.834 17.8789 17.9014 17.8555 17.9619L16.6807 21H16.1094L14.9053 17.959C14.8818 17.8984 14.8584 17.8311 14.835 17.7568C14.8115 17.6807 14.7949 17.6123 14.7852 17.5518H14.75C14.7559 17.6123 14.7617 17.6807 14.7676 17.7568C14.7734 17.8311 14.7764 17.8984 14.7764 17.959V21H14.1904ZM19.6631 21V16.7344H20.3369V20.4668H22.4639V21H19.6631Z" fill="white"/>
</svg>
