<svg width="28" height="28" viewBox="0 0 28 28" fill="none" xmlns="http://www.w3.org/2000/svg">
<path fill-rule="evenodd" clip-rule="evenodd" d="M4.66671 0C3.37804 0 2.33337 1.04467 2.33337 2.33333V25.6667C2.33337 26.9553 3.37804 28 4.66671 28H23.3334C24.622 28 25.6667 26.9553 25.6667 25.6667V0H4.66671ZM25.6667 1.83582e-05V4.66667L21 1.79503e-05L25.6667 1.83582e-05Z" fill="#DDE8ED"/>
<path fill-rule="evenodd" clip-rule="evenodd" d="M21 0V4.66665H25.6667L21 0Z" fill="#899BAA"/>
<path fill-rule="evenodd" clip-rule="evenodd" d="M25.6667 9.3335V4.66683H21.0001L25.6667 9.3335Z" fill="#BFCED9"/>
<rect x="1" y="14" width="26" height="10" rx="1" fill="#267D39"/>
<path d="M4.47656 20.3164V20.2773H5.375V20.3164C5.375 20.6654 5.47005 20.931 5.66016 21.1133C5.85026 21.293 6.11328 21.3828 6.44922 21.3828C6.78516 21.3828 7.04688 21.2826 7.23438 21.082C7.42448 20.8789 7.51953 20.5898 7.51953 20.2148V16.3125H8.42188V20.2148C8.42188 20.8008 8.23958 21.2643 7.875 21.6055C7.51302 21.9466 7.03776 22.1172 6.44922 22.1172C5.86068 22.1172 5.38411 21.957 5.01953 21.6367C4.65755 21.3164 4.47656 20.8763 4.47656 20.3164ZM9.60156 23.625V17.7266H10.4062L10.4375 18.2695H10.457C10.569 18.0977 10.7422 17.9518 10.9766 17.832C11.2109 17.7096 11.4844 17.6484 11.7969 17.6484C12.3672 17.6484 12.8229 17.8516 13.1641 18.2578C13.5078 18.6641 13.6797 19.1784 13.6797 19.8008V19.9258C13.6797 20.5482 13.5078 21.0625 13.1641 21.4688C12.8229 21.875 12.3685 22.0781 11.8008 22.0781C11.4883 22.0781 11.2214 22.0273 11 21.9258C10.7786 21.8216 10.6029 21.6823 10.4727 21.5078V23.625H9.60156ZM10.4727 20.6758C10.5586 20.8607 10.6979 21.0247 10.8906 21.168C11.0859 21.3112 11.3203 21.3828 11.5938 21.3828C12.0052 21.3828 12.3073 21.2435 12.5 20.9648C12.6927 20.6836 12.7891 20.3372 12.7891 19.9258V19.8008C12.7891 19.3893 12.6927 19.0443 12.5 18.7656C12.3073 18.4844 12.0052 18.3438 11.5938 18.3438C11.3203 18.3438 11.0859 18.4167 10.8906 18.5625C10.6979 18.7057 10.5586 18.8685 10.4727 19.0508V20.6758ZM14.3438 19.9258V19.8008C14.3438 19.1576 14.5326 18.6315 14.9102 18.2227C15.2878 17.8138 15.7852 17.6094 16.4023 17.6094C17.0273 17.6094 17.5078 17.8008 17.8438 18.1836C18.1823 18.5664 18.3516 19.082 18.3516 19.7305V20.082H14.9102V19.4258H17.4727L17.4688 19.4219C17.4688 19.112 17.388 18.8464 17.2266 18.625C17.0651 18.401 16.7891 18.2891 16.3984 18.2891C16.0182 18.2891 15.7266 18.4349 15.5234 18.7266C15.3203 19.0182 15.2188 19.3763 15.2188 19.8008V19.9258C15.2188 20.3503 15.3255 20.7083 15.5391 21C15.7526 21.2917 16.082 21.4375 16.5273 21.4375C16.8034 21.4375 17.0417 21.3802 17.2422 21.2656C17.4427 21.151 17.6029 21.0143 17.7227 20.8555L18.2891 21.3164C18.151 21.5169 17.9297 21.7005 17.625 21.8672C17.3229 22.0339 16.957 22.1172 16.5273 22.1172C15.8216 22.1172 15.2812 21.9141 14.9062 21.5078C14.5312 21.099 14.3438 20.5716 14.3438 19.9258ZM19.1602 23.1094L19.6094 22.4766C19.7448 22.612 19.931 22.7305 20.168 22.832C20.4076 22.9336 20.6745 22.9844 20.9688 22.9844C21.3411 22.9844 21.6354 22.8854 21.8516 22.6875C22.0677 22.4896 22.1758 22.2109 22.1758 21.8516V21.5078C22.0456 21.6823 21.8698 21.8216 21.6484 21.9258C21.4271 22.0273 21.1602 22.0781 20.8477 22.0781C20.2773 22.0781 19.8216 21.875 19.4805 21.4688C19.1393 21.0625 18.9688 20.5482 18.9688 19.9258V19.8008C18.9688 19.1784 19.1393 18.6641 19.4805 18.2578C19.8216 17.8516 20.2773 17.6484 20.8477 17.6484C21.1602 17.6484 21.4336 17.7096 21.668 17.832C21.9049 17.9518 22.0794 18.0977 22.1914 18.2695H22.207L22.2422 17.7266H23.043V21.8516C23.043 22.4479 22.8529 22.9049 22.4727 23.2227C22.0951 23.543 21.6029 23.7031 20.9961 23.7031C20.6211 23.7031 20.2747 23.6471 19.957 23.5352C19.6393 23.4232 19.3737 23.2812 19.1602 23.1094ZM19.8594 19.9258C19.8594 20.3372 19.9557 20.6836 20.1484 20.9648C20.3411 21.2435 20.6432 21.3828 21.0547 21.3828C21.3281 21.3828 21.5612 21.3112 21.7539 21.168C21.9492 21.0247 22.0898 20.8607 22.1758 20.6758V19.0508C22.0898 18.8659 21.9492 18.7018 21.7539 18.5586C21.5612 18.4154 21.3281 18.3438 21.0547 18.3438C20.6432 18.3438 20.3411 18.4844 20.1484 18.7656C19.9557 19.0469 19.8594 19.3919 19.8594 19.8008V19.9258Z" fill="white"/>
</svg>
