<svg width="28" height="28" viewBox="0 0 28 28" fill="none" xmlns="http://www.w3.org/2000/svg">
<path fill-rule="evenodd" clip-rule="evenodd" d="M4.66671 0C3.37804 0 2.33337 1.04467 2.33337 2.33333V25.6667C2.33337 26.9553 3.37804 28 4.66671 28H23.3334C24.622 28 25.6667 26.9553 25.6667 25.6667V0H4.66671ZM25.6667 1.83582e-05V4.66667L21 1.79503e-05L25.6667 1.83582e-05Z" fill="#DDE8ED"/>
<path fill-rule="evenodd" clip-rule="evenodd" d="M21 0V4.66665H25.6667L21 0Z" fill="#899BAA"/>
<path fill-rule="evenodd" clip-rule="evenodd" d="M25.6667 9.3335V4.66683H21.0001L25.6667 9.3335Z" fill="#BFCED9"/>
<rect x="1" y="14" width="26" height="10" rx="1" fill="#C253B3"/>
<path d="M6.40234 20.3164C6.40234 20.8763 6.58333 21.3164 6.94531 21.6367C7.3099 21.957 7.78646 22.1172 8.375 22.1172C8.96354 22.1172 9.4388 21.9466 9.80078 21.6055C10.1654 21.2643 10.3477 20.8008 10.3477 20.2148V16.3125H9.44531V20.2148C9.44531 20.5898 9.35026 20.8789 9.16016 21.082C8.97266 21.2826 8.71094 21.3828 8.375 21.3828C8.03906 21.3828 7.77604 21.293 7.58594 21.1133C7.39583 20.931 7.30078 20.6654 7.30078 20.3164V20.2773H6.40234V20.3164ZM11.6172 22H12.5117V19.8594H13.6758C14.3607 19.8594 14.8854 19.6966 15.25 19.3711C15.6172 19.043 15.8008 18.612 15.8008 18.0781C15.8008 17.5417 15.6172 17.1133 15.25 16.793C14.8854 16.4727 14.3607 16.3125 13.6758 16.3125H11.6172V22ZM12.5156 19.1484V17.0234H13.6758C14.1289 17.0234 14.4466 17.125 14.6289 17.3281C14.8138 17.5286 14.9062 17.7786 14.9062 18.0781C14.9062 18.375 14.8138 18.6276 14.6289 18.8359C14.4466 19.0443 14.1289 19.1484 13.6758 19.1484H12.5156ZM16.4609 19.3164C16.4609 20.1966 16.7031 20.8841 17.1875 21.3789C17.6745 21.8711 18.3268 22.1172 19.1445 22.1172C19.681 22.1172 20.1393 22.0365 20.5195 21.875C20.8997 21.7109 21.1888 21.5326 21.3867 21.3398V19.1055H19.0625V19.8164H20.5039V21.0234C20.3138 21.1484 20.112 21.2396 19.8984 21.2969C19.6875 21.3542 19.4362 21.3828 19.1445 21.3828C18.582 21.3828 18.1458 21.1992 17.8359 20.832C17.5286 20.4648 17.375 19.9596 17.375 19.3164V18.9961C17.375 18.3529 17.5286 17.8477 17.8359 17.4805C18.1458 17.1133 18.5391 16.9297 19.0156 16.9297C19.4948 16.9297 19.8516 17.0404 20.0859 17.2617C20.3229 17.4805 20.4531 17.7148 20.4766 17.9648L20.4805 18.0039H21.3867L21.3828 17.9648C21.3359 17.4831 21.1133 17.0677 20.7148 16.7188C20.319 16.3698 19.7526 16.1953 19.0156 16.1953C18.2865 16.1953 17.6784 16.4427 17.1914 16.9375C16.7044 17.4297 16.4609 18.1159 16.4609 18.9961V19.3164Z" fill="white"/>
</svg>
