<svg width="28" height="28" viewBox="0 0 28 28" fill="none" xmlns="http://www.w3.org/2000/svg">
<path fill-rule="evenodd" clip-rule="evenodd" d="M4.66671 0C3.37804 0 2.33337 1.04467 2.33337 2.33333V25.6667C2.33337 26.9553 3.37804 28 4.66671 28H23.3334C24.622 28 25.6667 26.9553 25.6667 25.6667V0H4.66671ZM25.6667 1.83582e-05V4.66667L21 1.79503e-05L25.6667 1.83582e-05Z" fill="#DDE8ED"/>
<path fill-rule="evenodd" clip-rule="evenodd" d="M21 0V4.66665H25.6667L21 0Z" fill="#899BAA"/>
<path fill-rule="evenodd" clip-rule="evenodd" d="M25.6667 9.3335V4.66683H21.0001L25.6667 9.3335Z" fill="#BFCED9"/>
<rect x="1" y="14" width="26" height="10" rx="1" fill="#D2D61A"/>
<path d="M5.8877 19.7373V19.708H6.56152V19.7373C6.56152 19.999 6.63281 20.1982 6.77539 20.335C6.91797 20.4697 7.11523 20.5371 7.36719 20.5371C7.61914 20.5371 7.81543 20.4619 7.95605 20.3115C8.09863 20.1592 8.16992 19.9424 8.16992 19.6611V16.7344H8.84668V19.6611C8.84668 20.1006 8.70996 20.4482 8.43652 20.7041C8.16504 20.96 7.80859 21.0879 7.36719 21.0879C6.92578 21.0879 6.56836 20.9678 6.29492 20.7275C6.02344 20.4873 5.8877 20.1572 5.8877 19.7373ZM9.56152 19.8076V19.7666H10.2383V19.8076C10.2383 20.0498 10.3271 20.2324 10.5049 20.3555C10.6846 20.4766 10.9336 20.5371 11.252 20.5371C11.5742 20.5371 11.8203 20.4766 11.9902 20.3555C12.1602 20.2324 12.2451 20.0713 12.2451 19.8721C12.2451 19.6885 12.1689 19.5439 12.0166 19.4385C11.8662 19.333 11.5391 19.2188 11.0352 19.0957C10.5312 18.9727 10.1738 18.8193 9.96289 18.6357C9.75391 18.4502 9.64941 18.1846 9.64941 17.8389C9.64941 17.4971 9.78809 17.2129 10.0654 16.9863C10.3447 16.7598 10.7305 16.6465 11.2227 16.6465C11.7148 16.6465 12.1055 16.7695 12.3945 17.0156C12.6855 17.2598 12.8311 17.5576 12.8311 17.9092V17.9502H12.1572V17.9092C12.1572 17.6963 12.0791 17.5244 11.9229 17.3936C11.7666 17.2627 11.5332 17.1973 11.2227 17.1973C10.916 17.1973 10.6885 17.252 10.54 17.3613C10.3936 17.4688 10.3203 17.6055 10.3203 17.7715C10.3203 17.959 10.3926 18.1035 10.5371 18.2051C10.6836 18.3066 10.9775 18.4102 11.4189 18.5156C11.9268 18.6406 12.3027 18.8037 12.5469 19.0049C12.793 19.2061 12.916 19.4893 12.916 19.8545C12.916 20.2158 12.7666 20.5117 12.4678 20.7422C12.1689 20.9727 11.7637 21.0879 11.252 21.0879C10.7422 21.0879 10.333 20.9736 10.0244 20.7451C9.71582 20.5146 9.56152 20.2021 9.56152 19.8076ZM13.4844 18.9873V18.7471C13.4844 18.0869 13.666 17.5723 14.0293 17.2031C14.3926 16.832 14.8594 16.6465 15.4297 16.6465C16 16.6465 16.4668 16.832 16.8301 17.2031C17.1953 17.5723 17.3779 18.0869 17.3779 18.7471V18.9873C17.3779 19.6475 17.1953 20.1631 16.8301 20.5342C16.4668 20.9033 16 21.0879 15.4297 21.0879C14.8594 21.0879 14.3926 20.9033 14.0293 20.5342C13.666 20.1631 13.4844 19.6475 13.4844 18.9873ZM14.1699 18.9873C14.1699 19.4678 14.2852 19.8457 14.5156 20.1211C14.7461 20.3965 15.0518 20.5342 15.4326 20.5342C15.8135 20.5342 16.1182 20.3965 16.3467 20.1211C16.5771 19.8457 16.6924 19.4678 16.6924 18.9873V18.7471C16.6924 18.2666 16.5771 17.8887 16.3467 17.6133C16.1182 17.3379 15.8125 17.2002 15.4297 17.2002C15.0488 17.2002 14.7432 17.3379 14.5127 17.6133C14.2842 17.8887 14.1699 18.2666 14.1699 18.7471V18.9873ZM18.2129 21V16.7344H18.9365L20.8555 19.6611C20.8945 19.7197 20.9316 19.7861 20.9668 19.8604C21.0039 19.9346 21.0342 19.9971 21.0576 20.0479H21.0869C21.0811 19.9873 21.0762 19.9062 21.0723 19.8047C21.0684 19.7012 21.0664 19.6191 21.0664 19.5586V16.7344H21.6875V21H20.9609L19.0273 18.0586C18.9883 18 18.9521 17.9414 18.9189 17.8828C18.8877 17.8242 18.8604 17.7695 18.8369 17.7188H18.8105C18.8145 17.7773 18.8184 17.8438 18.8223 17.918C18.8262 17.9902 18.8281 18.0566 18.8281 18.1172V21H18.2129Z" fill="white"/>
</svg>
