<svg width="28" height="28" viewBox="0 0 28 28" fill="none" xmlns="http://www.w3.org/2000/svg">
<path fill-rule="evenodd" clip-rule="evenodd" d="M4.66671 0C3.37804 0 2.33337 1.04467 2.33337 2.33333V25.6667C2.33337 26.9553 3.37804 28 4.66671 28H23.3334C24.622 28 25.6667 26.9553 25.6667 25.6667V0H4.66671ZM25.6667 1.83582e-05V4.66667L21 1.79503e-05L25.6667 1.83582e-05Z" fill="#DDE8ED"/>
<path fill-rule="evenodd" clip-rule="evenodd" d="M21 0V4.66665H25.6667L21 0Z" fill="#899BAA"/>
<path fill-rule="evenodd" clip-rule="evenodd" d="M25.6667 9.3335V4.66683H21.0001L25.6667 9.3335Z" fill="#BFCED9"/>
<rect x="1" y="14" width="26" height="10" rx="1" fill="#341F97"/>
<path d="M6.4668 21H7.15039V17.4521C7.15039 17.3815 7.14697 17.3029 7.14014 17.2163C7.1333 17.1274 7.12646 17.0477 7.11963 16.9771H7.16064C7.17204 17.0477 7.19141 17.1274 7.21875 17.2163C7.24609 17.3029 7.27344 17.3815 7.30078 17.4521L8.70557 21H9.37207L10.7427 17.4556C10.77 17.3849 10.7985 17.3063 10.8281 17.2197C10.8577 17.1309 10.884 17.0511 10.9067 16.9805H10.9443C10.9352 17.0511 10.9284 17.1309 10.9238 17.2197C10.9215 17.3063 10.9204 17.3849 10.9204 17.4556V21H11.6895V16.0234H10.6025L9.24902 19.5234C9.22168 19.5918 9.19434 19.6647 9.16699 19.7422C9.13965 19.8174 9.11458 19.8903 9.0918 19.9609H9.06104C9.03825 19.8903 9.01204 19.8174 8.98242 19.7422C8.95508 19.6647 8.92773 19.5918 8.90039 19.5234L7.5127 16.0234H6.4668V21ZM12.6602 18.6519C12.6602 19.422 12.8721 20.0236 13.2959 20.4565C13.7197 20.8872 14.2643 21.1025 14.9297 21.1025C15.5951 21.1025 16.1396 20.8872 16.5635 20.4565C16.9896 20.0236 17.2026 19.422 17.2026 18.6519V18.3716C17.2026 17.6014 16.9896 17.001 16.5635 16.5703C16.1396 16.1374 15.5951 15.9209 14.9297 15.9209C14.2643 15.9209 13.7197 16.1374 13.2959 16.5703C12.8721 17.001 12.6602 17.6014 12.6602 18.3716V18.6519ZM13.46 18.6519V18.3716C13.46 17.811 13.5933 17.3701 13.8599 17.0488C14.1287 16.7275 14.4854 16.5669 14.9297 16.5669C15.3763 16.5669 15.7329 16.7275 15.9995 17.0488C16.2684 17.3701 16.4028 17.811 16.4028 18.3716V18.6519C16.4028 19.2124 16.2684 19.6533 15.9995 19.9746C15.7329 20.2959 15.3774 20.4565 14.9331 20.4565C14.4888 20.4565 14.1322 20.2959 13.8633 19.9746C13.5944 19.6533 13.46 19.2124 13.46 18.6519ZM17.5684 16.0234L19.4653 21.0273H20.248L22.1416 16.0234H21.3828L20.0566 19.6157C20.027 19.6955 19.9997 19.7764 19.9746 19.8584C19.9495 19.9382 19.9268 20.019 19.9062 20.1011H19.8721C19.8516 20.019 19.8288 19.9382 19.8037 19.8584C19.7809 19.7764 19.7536 19.6955 19.7217 19.6157L18.4092 16.0234H17.5684Z" fill="white"/>
</svg>
