<svg width="28" height="28" viewBox="0 0 28 28" fill="none" xmlns="http://www.w3.org/2000/svg">
<path fill-rule="evenodd" clip-rule="evenodd" d="M4.66671 0C3.37804 0 2.33337 1.04467 2.33337 2.33333V25.6667C2.33337 26.9553 3.37804 28 4.66671 28H23.3334C24.622 28 25.6667 26.9553 25.6667 25.6667V0H4.66671ZM25.6667 1.83582e-05V4.66667L21 1.79503e-05L25.6667 1.83582e-05Z" fill="#DDE8ED"/>
<path fill-rule="evenodd" clip-rule="evenodd" d="M21 0V4.66665H25.6667L21 0Z" fill="#899BAA"/>
<path fill-rule="evenodd" clip-rule="evenodd" d="M25.6667 9.3335V4.66683H21.0001L25.6667 9.3335Z" fill="#BFCED9"/>
<rect x="1" y="14" width="26" height="10" rx="1" fill="#10AC84"/>
<path d="M6.15234 22H6.93359V17.9453C6.93359 17.8646 6.92969 17.7747 6.92188 17.6758C6.91406 17.5742 6.90625 17.4831 6.89844 17.4023H6.94531C6.95833 17.4831 6.98047 17.5742 7.01172 17.6758C7.04297 17.7747 7.07422 17.8646 7.10547 17.9453L8.71094 22H9.47266L11.0391 17.9492C11.0703 17.8685 11.1029 17.7786 11.1367 17.6797C11.1706 17.5781 11.2005 17.487 11.2266 17.4062H11.2695C11.2591 17.487 11.2513 17.5781 11.2461 17.6797C11.2435 17.7786 11.2422 17.8685 11.2422 17.9492V22H12.1211V16.3125H10.8789L9.33203 20.3125C9.30078 20.3906 9.26953 20.474 9.23828 20.5625C9.20703 20.6484 9.17839 20.7318 9.15234 20.8125H9.11719C9.09115 20.7318 9.0612 20.6484 9.02734 20.5625C8.99609 20.474 8.96484 20.3906 8.93359 20.3125L7.34766 16.3125H6.15234V22ZM13.4492 22H14.3438V19.8594H15.5078C16.1927 19.8594 16.7174 19.6966 17.082 19.3711C17.4492 19.043 17.6328 18.612 17.6328 18.0781C17.6328 17.5417 17.4492 17.1133 17.082 16.793C16.7174 16.4727 16.1927 16.3125 15.5078 16.3125H13.4492V22ZM14.3477 19.1484V17.0234H15.5078C15.9609 17.0234 16.2786 17.125 16.4609 17.3281C16.6458 17.5286 16.7383 17.7786 16.7383 18.0781C16.7383 18.375 16.6458 18.6276 16.4609 18.8359C16.2786 19.0443 15.9609 19.1484 15.5078 19.1484H14.3477ZM18.0742 20.4766C18.0742 20.9557 18.2604 21.349 18.6328 21.6562C19.0078 21.9635 19.5039 22.1172 20.1211 22.1172C20.7096 22.1172 21.1992 21.9661 21.5898 21.6641C21.9831 21.362 22.1797 20.9466 22.1797 20.418C22.1797 20.0612 22.0768 19.7604 21.8711 19.5156C21.6654 19.2708 21.3919 19.1068 21.0508 19.0234V19.0078C21.3685 18.8724 21.6016 18.6888 21.75 18.457C21.901 18.2227 21.9766 17.9766 21.9766 17.7188C21.9766 17.2708 21.8086 16.9049 21.4727 16.6211C21.1393 16.3372 20.6888 16.1953 20.1211 16.1953C19.569 16.1953 19.1172 16.3464 18.7656 16.6484C18.4141 16.9505 18.2383 17.3151 18.2383 17.7422V17.7812H19.1289V17.7422C19.1289 17.474 19.2201 17.2682 19.4023 17.125C19.5872 16.9818 19.8268 16.9102 20.1211 16.9102C20.4049 16.9102 20.6328 16.9805 20.8047 17.1211C20.9792 17.2617 21.0664 17.4779 21.0664 17.7695C21.0664 18.0586 20.9661 18.2852 20.7656 18.4492C20.5651 18.6107 20.2865 18.6914 19.9297 18.6914H19.4414V19.3867H19.9727C20.3607 19.3867 20.6719 19.4727 20.9062 19.6445C21.1432 19.8138 21.2617 20.0664 21.2617 20.4023C21.2617 20.7461 21.1562 20.9987 20.9453 21.1602C20.737 21.3216 20.4622 21.4023 20.1211 21.4023C19.7669 21.4023 19.4857 21.3216 19.2773 21.1602C19.069 20.9987 18.9648 20.7708 18.9648 20.4766V20.4375H18.0742V20.4766Z" fill="white"/>
</svg>
