<svg width="28" height="28" viewBox="0 0 28 28" fill="none" xmlns="http://www.w3.org/2000/svg">
<path fill-rule="evenodd" clip-rule="evenodd" d="M4.66671 0C3.37804 0 2.33337 1.04467 2.33337 2.33333V25.6667C2.33337 26.9553 3.37804 28 4.66671 28H23.3334C24.622 28 25.6667 26.9553 25.6667 25.6667V0H4.66671ZM25.6667 1.83582e-05V4.66667L21 1.79503e-05L25.6667 1.83582e-05Z" fill="#DDE8ED"/>
<path fill-rule="evenodd" clip-rule="evenodd" d="M21 0V4.66665H25.6667L21 0Z" fill="#899BAA"/>
<path fill-rule="evenodd" clip-rule="evenodd" d="M25.6667 9.3335V4.66683H21.0001L25.6667 9.3335Z" fill="#BFCED9"/>
<rect x="1" y="14" width="26" height="10" rx="1" fill="#EE5253"/>
<path d="M6.91016 22H7.80469V19.8594H8.96875C9.65365 19.8594 10.1784 19.6966 10.543 19.3711C10.9102 19.043 11.0938 18.612 11.0938 18.0781C11.0938 17.5417 10.9102 17.1133 10.543 16.793C10.1784 16.4727 9.65365 16.3125 8.96875 16.3125H6.91016V22ZM7.80859 19.1484V17.0234H8.96875C9.42188 17.0234 9.73958 17.125 9.92188 17.3281C10.1068 17.5286 10.1992 17.7786 10.1992 18.0781C10.1992 18.375 10.1068 18.6276 9.92188 18.8359C9.73958 19.0443 9.42188 19.1484 8.96875 19.1484H7.80859ZM11.9727 22H13.832C14.6185 22 15.2734 21.7578 15.7969 21.2734C16.3229 20.7865 16.5859 20.1341 16.5859 19.3164V18.9961C16.5859 18.1784 16.3229 17.5273 15.7969 17.043C15.2734 16.556 14.6185 16.3125 13.832 16.3125H11.9727V22ZM12.8711 21.2891V17.0234H13.832C14.3919 17.0234 14.8385 17.1979 15.1719 17.5469C15.5078 17.8958 15.6758 18.3789 15.6758 18.9961V19.3164C15.6758 19.9336 15.5078 20.4167 15.1719 20.7656C14.8385 21.1146 14.3919 21.2891 13.832 21.2891H12.8711ZM17.6992 22H18.5977V19.5781H21.1289V18.8672H18.5977V17.0234H21.5234V16.3125H17.6992V22Z" fill="white"/>
</svg>
