<svg width="28" height="28" viewBox="0 0 28 28" fill="none" xmlns="http://www.w3.org/2000/svg">
<path fill-rule="evenodd" clip-rule="evenodd" d="M4.66671 0C3.37804 0 2.33337 1.04467 2.33337 2.33333V25.6667C2.33337 26.9553 3.37804 28 4.66671 28H23.3334C24.622 28 25.6667 26.9553 25.6667 25.6667V0H4.66671ZM25.6667 0L25.6667 4.66667L21 1.79503e-05L25.6667 0Z" fill="#DDE8ED"/>
<path fill-rule="evenodd" clip-rule="evenodd" d="M21 0V4.66665H25.6667L21 0Z" fill="#899BAA"/>
<path fill-rule="evenodd" clip-rule="evenodd" d="M25.6667 9.3335V4.66683H21.0001L25.6667 9.3335Z" fill="#BFCED9"/>
<rect x="1" y="14" width="26" height="10" rx="1" fill="#3B82F6"/>
<path d="M6.3125 22H7.20703V19.8594H8.37109C9.05599 19.8594 9.58073 19.6966 9.94531 19.3711C10.3125 19.043 10.4961 18.612 10.4961 18.0781C10.4961 17.5417 10.3125 17.1133 9.94531 16.793C9.58073 16.4727 9.05599 16.3125 8.37109 16.3125H6.3125V22ZM7.21094 19.1484V17.0234H8.37109C8.82422 17.0234 9.14193 17.125 9.32422 17.3281C9.50911 17.5286 9.60156 17.7786 9.60156 18.0781C9.60156 18.375 9.50911 18.6276 9.32422 18.8359C9.14193 19.0443 8.82422 19.1484 8.37109 19.1484H7.21094ZM11.375 22H12.1953V18.1562C12.1953 18.0755 12.1927 17.987 12.1875 17.8906C12.1823 17.7917 12.1771 17.7031 12.1719 17.625H12.207C12.2383 17.6927 12.2747 17.7656 12.3164 17.8438C12.3607 17.9219 12.4089 18 12.4609 18.0781L15.0391 22H16.0078V16.3125H15.1797V20.0781C15.1797 20.1589 15.1823 20.2682 15.1875 20.4062C15.1927 20.5417 15.1992 20.6497 15.207 20.7305H15.168C15.1367 20.6628 15.0964 20.5794 15.0469 20.4805C15 20.3815 14.9505 20.293 14.8984 20.2148L12.3398 16.3125H11.375V22ZM17.1172 19.3164C17.1172 20.1966 17.3594 20.8841 17.8438 21.3789C18.3307 21.8711 18.9831 22.1172 19.8008 22.1172C20.3372 22.1172 20.7956 22.0365 21.1758 21.875C21.556 21.7109 21.8451 21.5326 22.043 21.3398V19.1055H19.7188V19.8164H21.1602V21.0234C20.9701 21.1484 20.7682 21.2396 20.5547 21.2969C20.3438 21.3542 20.0924 21.3828 19.8008 21.3828C19.2383 21.3828 18.8021 21.1992 18.4922 20.832C18.1849 20.4648 18.0312 19.9596 18.0312 19.3164V18.9961C18.0312 18.3529 18.1849 17.8477 18.4922 17.4805C18.8021 17.1133 19.1953 16.9297 19.6719 16.9297C20.151 16.9297 20.5078 17.0404 20.7422 17.2617C20.9792 17.4805 21.1094 17.7148 21.1328 17.9648L21.1367 18.0039H22.043L22.0391 17.9648C21.9922 17.4831 21.7695 17.0677 21.3711 16.7188C20.9753 16.3698 20.4089 16.1953 19.6719 16.1953C18.9427 16.1953 18.3346 16.4427 17.8477 16.9375C17.3607 17.4297 17.1172 18.1159 17.1172 18.9961V19.3164Z" fill="white"/>
</svg>
