<svg width="28" height="28" viewBox="0 0 28 28" fill="none" xmlns="http://www.w3.org/2000/svg">
<path fill-rule="evenodd" clip-rule="evenodd" d="M4.66671 0C3.37804 0 2.33337 1.04467 2.33337 2.33333V25.6667C2.33337 26.9553 3.37804 28 4.66671 28H23.3334C24.622 28 25.6667 26.9553 25.6667 25.6667V0H4.66671ZM25.6667 1.83582e-05V4.66667L21 1.79503e-05L25.6667 1.83582e-05Z" fill="#DDE8ED"/>
<path fill-rule="evenodd" clip-rule="evenodd" d="M21 0V4.66665H25.6667L21 0Z" fill="#899BAA"/>
<path fill-rule="evenodd" clip-rule="evenodd" d="M25.6667 9.3335V4.66683H21.0001L25.6667 9.3335Z" fill="#BFCED9"/>
<rect x="1" y="14" width="26" height="10" rx="1" fill="#566876"/>
<path d="M7.06641 22V16.3125H9.08984C9.75911 16.3125 10.2747 16.4688 10.6367 16.7812C11.0013 17.0938 11.1836 17.5104 11.1836 18.0312C11.1836 18.5521 11.0013 18.9727 10.6367 19.293C10.2747 19.6133 9.75911 19.7734 9.08984 19.7734H7.96484V22H7.06641ZM7.96484 19.0625H9.08984C9.53516 19.0625 9.84505 18.9622 10.0195 18.7617C10.1966 18.5612 10.2852 18.3177 10.2852 18.0312C10.2852 17.7422 10.1979 17.5013 10.0234 17.3086C9.84896 17.1159 9.53776 17.0195 9.08984 17.0195H7.96484V19.0625ZM10.4219 22L9.00391 19.375L9.94531 19.2773L11.4492 22H10.4219ZM11.9727 20.7461C11.9727 20.3086 12.1576 19.9688 12.5273 19.7266C12.8971 19.4818 13.3659 19.3594 13.9336 19.3594H14.918V19.0234C14.918 18.7995 14.849 18.6185 14.7109 18.4805C14.5755 18.3398 14.3424 18.2695 14.0117 18.2695C13.681 18.2695 13.444 18.3333 13.3008 18.4609C13.1602 18.5885 13.0898 18.7357 13.0898 18.9023V18.9219H12.2188V18.9023C12.2188 18.556 12.3815 18.2539 12.707 17.9961C13.0352 17.7383 13.4779 17.6094 14.0352 17.6094C14.5898 17.6094 15.0208 17.7279 15.3281 17.9648C15.6354 18.2018 15.7891 18.5547 15.7891 19.0234V21.0625C15.7891 21.2318 15.8021 21.3919 15.8281 21.543C15.8568 21.6914 15.8945 21.8229 15.9414 21.9375V22H15.0977C15.0586 21.9323 15.0234 21.8451 14.9922 21.7383C14.9635 21.6315 14.9453 21.5247 14.9375 21.418C14.8333 21.5924 14.6615 21.7461 14.4219 21.8789C14.1849 22.0117 13.8815 22.0781 13.5117 22.0781C13.0872 22.0781 12.724 21.9635 12.4219 21.7344C12.1224 21.5052 11.9727 21.1758 11.9727 20.7461ZM12.8398 20.707C12.8398 20.931 12.9102 21.1068 13.0508 21.2344C13.194 21.3594 13.4154 21.4219 13.7148 21.4219C14.0195 21.4219 14.2956 21.3255 14.543 21.1328C14.793 20.9401 14.918 20.7357 14.918 20.5195V19.9492H14.0117C13.6289 19.9492 13.3372 20.0182 13.1367 20.1562C12.9388 20.2917 12.8398 20.4753 12.8398 20.707ZM17.043 22V16.3125H19.0664C19.7357 16.3125 20.2513 16.4688 20.6133 16.7812C20.9779 17.0938 21.1602 17.5104 21.1602 18.0312C21.1602 18.5521 20.9779 18.9727 20.6133 19.293C20.2513 19.6133 19.7357 19.7734 19.0664 19.7734H17.9414V22H17.043ZM17.9414 19.0625H19.0664C19.5117 19.0625 19.8216 18.9622 19.9961 18.7617C20.1732 18.5612 20.2617 18.3177 20.2617 18.0312C20.2617 17.7422 20.1745 17.5013 20 17.3086C19.8255 17.1159 19.5143 17.0195 19.0664 17.0195H17.9414V19.0625ZM20.3984 22L18.9805 19.375L19.9219 19.2773L21.4258 22H20.3984Z" fill="white"/>
</svg>
