<svg width="28" height="28" viewBox="0 0 28 28" fill="none" xmlns="http://www.w3.org/2000/svg">
<path fill-rule="evenodd" clip-rule="evenodd" d="M4.66671 0C3.37804 0 2.33337 1.04467 2.33337 2.33333V25.6667C2.33337 26.9553 3.37804 28 4.66671 28H23.3334C24.622 28 25.6667 26.9553 25.6667 25.6667V0H4.66671ZM25.6667 1.83582e-05V4.66667L21 1.79503e-05L25.6667 1.83582e-05Z" fill="#DDE8ED"/>
<path fill-rule="evenodd" clip-rule="evenodd" d="M21 0V4.66665H25.6667L21 0Z" fill="#899BAA"/>
<path fill-rule="evenodd" clip-rule="evenodd" d="M25.6667 9.3335V4.66683H21.0001L25.6667 9.3335Z" fill="#BFCED9"/>
<rect x="1" y="14" width="26" height="10" rx="1" fill="#1CB1D1"/>
<path d="M8.26953 19.8076V19.7666H8.94629V19.8076C8.94629 20.0498 9.03516 20.2324 9.21289 20.3555C9.39258 20.4766 9.6416 20.5371 9.95996 20.5371C10.2822 20.5371 10.5283 20.4766 10.6982 20.3555C10.8682 20.2324 10.9531 20.0713 10.9531 19.8721C10.9531 19.6885 10.877 19.5439 10.7246 19.4385C10.5742 19.333 10.2471 19.2188 9.74316 19.0957C9.23926 18.9727 8.88184 18.8193 8.6709 18.6357C8.46191 18.4502 8.35742 18.1846 8.35742 17.8389C8.35742 17.4971 8.49609 17.2129 8.77344 16.9863C9.05273 16.7598 9.43848 16.6465 9.93066 16.6465C10.4229 16.6465 10.8135 16.7695 11.1025 17.0156C11.3936 17.2598 11.5391 17.5576 11.5391 17.9092V17.9502H10.8652V17.9092C10.8652 17.6963 10.7871 17.5244 10.6309 17.3936C10.4746 17.2627 10.2412 17.1973 9.93066 17.1973C9.62402 17.1973 9.39648 17.252 9.24805 17.3613C9.10156 17.4688 9.02832 17.6055 9.02832 17.7715C9.02832 17.959 9.10059 18.1035 9.24512 18.2051C9.3916 18.3066 9.68555 18.4102 10.127 18.5156C10.6348 18.6406 11.0107 18.8037 11.2549 19.0049C11.501 19.2061 11.624 19.4893 11.624 19.8545C11.624 20.2158 11.4746 20.5117 11.1758 20.7422C10.877 20.9727 10.4717 21.0879 9.95996 21.0879C9.4502 21.0879 9.04102 20.9736 8.73242 20.7451C8.42383 20.5146 8.26953 20.2021 8.26953 19.8076ZM11.835 16.7344H12.5557L13.6807 19.8135C13.708 19.8818 13.7314 19.9512 13.751 20.0215C13.7725 20.0898 13.792 20.1592 13.8096 20.2295H13.8389C13.8564 20.1592 13.876 20.0898 13.8975 20.0215C13.9189 19.9512 13.9424 19.8818 13.9678 19.8135L15.1045 16.7344H15.7549L14.1318 21.0234H13.4609L11.835 16.7344ZM16.0654 18.9873V18.7471C16.0654 18.0869 16.248 17.5723 16.6133 17.2031C16.9785 16.832 17.4346 16.6465 17.9814 16.6465C18.5342 16.6465 18.959 16.7773 19.2559 17.0391C19.5547 17.3008 19.7217 17.6123 19.7568 17.9736L19.7598 18.0029H19.0801L19.0771 17.9736C19.0596 17.7861 18.9619 17.6104 18.7842 17.4463C18.6084 17.2803 18.3408 17.1973 17.9814 17.1973C17.624 17.1973 17.3291 17.335 17.0967 17.6104C16.8662 17.8857 16.751 18.2646 16.751 18.7471V18.9873C16.751 19.4697 16.8662 19.8486 17.0967 20.124C17.3291 20.3994 17.6562 20.5371 18.0781 20.5371C18.2969 20.5371 18.4854 20.5156 18.6436 20.4727C18.8037 20.4297 18.9551 20.3613 19.0977 20.2676V19.3623H18.0166V18.8291H19.7598V20.5049C19.6113 20.6494 19.3945 20.7832 19.1094 20.9062C18.8242 21.0273 18.4805 21.0879 18.0781 21.0879C17.4648 21.0879 16.9756 20.9033 16.6104 20.5342C16.2471 20.1631 16.0654 19.6475 16.0654 18.9873Z" fill="white"/>
</svg>
