<svg width="28" height="28" viewBox="0 0 28 28" fill="none" xmlns="http://www.w3.org/2000/svg">
<path fill-rule="evenodd" clip-rule="evenodd" d="M4.66671 0C3.37804 0 2.33337 1.04467 2.33337 2.33333V25.6667C2.33337 26.9553 3.37804 28 4.66671 28H23.3334C24.622 28 25.6667 26.9553 25.6667 25.6667V0H4.66671ZM25.6667 1.83582e-05V4.66667L21 1.79503e-05L25.6667 1.83582e-05Z" fill="#DDE8ED"/>
<path fill-rule="evenodd" clip-rule="evenodd" d="M21 0V4.66665H25.6667L21 0Z" fill="#899BAA"/>
<path fill-rule="evenodd" clip-rule="evenodd" d="M25.6667 9.3335V4.66683H21.0001L25.6667 9.3335Z" fill="#BFCED9"/>
<rect x="1" y="14" width="26" height="10" rx="1" fill="#3D505C"/>
<path d="M6.65625 17.0234H8.56641V22H9.46094V17.0234H11.3711V16.3125H6.65625V17.0234ZM11.5625 22H12.5117L14.1953 19.3828H14.332L16.3281 16.3125H15.3828L13.7969 18.8516H13.6641L11.5625 22ZM11.6602 16.3125L13.6641 19.3867H13.6992L15.3828 22H16.4336L14.332 18.8477H14.293L12.707 16.3125H11.6602ZM16.625 17.0234H18.5352V22H19.4297V17.0234H21.3398V16.3125H16.625V17.0234Z" fill="white"/>
</svg>
