<svg width="28" height="28" viewBox="0 0 28 28" fill="none" xmlns="http://www.w3.org/2000/svg">
<path fill-rule="evenodd" clip-rule="evenodd" d="M4.66671 0C3.37804 0 2.33337 1.04467 2.33337 2.33333V25.6667C2.33337 26.9553 3.37804 28 4.66671 28H23.3334C24.622 28 25.6667 26.9553 25.6667 25.6667V0H4.66671ZM25.6667 1.83582e-05V4.66667L21 1.79503e-05L25.6667 1.83582e-05Z" fill="#DDE8ED"/>
<path fill-rule="evenodd" clip-rule="evenodd" d="M21 0V4.66665H25.6667L21 0Z" fill="#899BAA"/>
<path fill-rule="evenodd" clip-rule="evenodd" d="M25.6667 9.3335V4.66683H21.0001L25.6667 9.3335Z" fill="#BFCED9"/>
<rect x="1" y="14" width="26" height="10" rx="1" fill="#005CBA"/>
<path d="M5.5 22.0312L4.07031 16.3125H4.98438L5.94531 20.4766C5.96615 20.5677 5.98307 20.6497 5.99609 20.7227C6.00911 20.793 6.02344 20.8711 6.03906 20.957H6.08594C6.09896 20.8711 6.11068 20.793 6.12109 20.7227C6.13411 20.6497 6.15234 20.5677 6.17578 20.4766L7.19141 16.3125H8.1875L9.24219 20.4766C9.26302 20.5651 9.27995 20.6458 9.29297 20.7188C9.30599 20.7891 9.31771 20.8685 9.32812 20.957H9.37891C9.39453 20.8659 9.40755 20.7852 9.41797 20.7148C9.42839 20.6445 9.44401 20.5651 9.46484 20.4766L10.4023 16.3125H11.2383L9.80469 22.0312H8.85156L7.78906 17.8906C7.76562 17.7995 7.74609 17.7135 7.73047 17.6328C7.71484 17.5495 7.69922 17.4648 7.68359 17.3789H7.63281C7.61719 17.4648 7.60156 17.5482 7.58594 17.6289C7.57031 17.707 7.55078 17.7917 7.52734 17.8828L6.45312 22.0234L5.5 22.0312ZM11.6328 19.9258V19.8008C11.6328 19.1576 11.8281 18.6315 12.2188 18.2227C12.6094 17.8138 13.1302 17.6094 13.7812 17.6094C14.4349 17.6094 14.957 17.8138 15.3477 18.2227C15.7409 18.6315 15.9375 19.1576 15.9375 19.8008V19.9258C15.9375 20.5716 15.7409 21.099 15.3477 21.5078C14.957 21.9141 14.4362 22.1172 13.7852 22.1172C13.1315 22.1172 12.6094 21.9141 12.2188 21.5078C11.8281 21.099 11.6328 20.5716 11.6328 19.9258ZM12.5234 19.8008V19.9258C12.5234 20.3451 12.6289 20.6992 12.8398 20.9883C13.0534 21.2773 13.3685 21.4219 13.7852 21.4219C14.1992 21.4219 14.5117 21.2773 14.7227 20.9883C14.9362 20.6992 15.043 20.3451 15.043 19.9258V19.8008C15.043 19.3815 14.9362 19.0273 14.7227 18.7383C14.5117 18.4492 14.1992 18.3047 13.7852 18.3047C13.3685 18.3047 13.0534 18.4492 12.8398 18.7383C12.6289 19.0273 12.5234 19.3815 12.5234 19.8008ZM16.8438 22V17.7266H17.6484L17.6797 18.2656H17.6992C17.8112 18.0911 17.9557 17.9388 18.1328 17.8086C18.3125 17.6758 18.5273 17.6094 18.7773 17.6094C18.8346 17.6094 18.8958 17.6159 18.9609 17.6289C19.026 17.6419 19.0716 17.6549 19.0977 17.668V18.4609C19.043 18.4479 18.9857 18.4388 18.9258 18.4336C18.8685 18.4284 18.8034 18.4258 18.7305 18.4258C18.4857 18.4258 18.276 18.4883 18.1016 18.6133C17.9297 18.7383 17.8008 18.8932 17.7148 19.0781V22H16.8438ZM19.4688 19.9258V19.8008C19.4688 19.1784 19.6393 18.6641 19.9805 18.2578C20.3242 17.8516 20.7812 17.6484 21.3516 17.6484C21.6615 17.6484 21.9271 17.7005 22.1484 17.8047C22.3698 17.9089 22.5456 18.0469 22.6758 18.2188V16H23.543V22H22.7422L22.707 21.457H22.6914C22.5794 21.6289 22.4049 21.776 22.168 21.8984C21.9336 22.0182 21.6615 22.0781 21.3516 22.0781C20.7786 22.0781 20.3216 21.875 19.9805 21.4688C19.6393 21.0625 19.4688 20.5482 19.4688 19.9258ZM20.3594 19.9258C20.3594 20.3398 20.4557 20.6862 20.6484 20.9648C20.8411 21.2435 21.1432 21.3828 21.5547 21.3828C21.8281 21.3828 22.0612 21.3112 22.2539 21.168C22.4492 21.0247 22.5898 20.8607 22.6758 20.6758V19.0508C22.5898 18.8659 22.4505 18.7018 22.2578 18.5586C22.0651 18.4154 21.8307 18.3438 21.5547 18.3438C21.1432 18.3438 20.8411 18.4844 20.6484 18.7656C20.4557 19.0443 20.3594 19.3893 20.3594 19.8008V19.9258Z" fill="white"/>
</svg>
