<svg width="28" height="28" viewBox="0 0 28 28" fill="none" xmlns="http://www.w3.org/2000/svg">
<path fill-rule="evenodd" clip-rule="evenodd" d="M4.66671 0C3.37804 0 2.33337 1.04467 2.33337 2.33333V25.6667C2.33337 26.9553 3.37804 28 4.66671 28H23.3334C24.622 28 25.6667 26.9553 25.6667 25.6667V0H4.66671ZM25.6667 1.83582e-05V4.66667L21 1.79503e-05L25.6667 1.83582e-05Z" fill="#DDE8ED"/>
<path fill-rule="evenodd" clip-rule="evenodd" d="M21 0V4.66665H25.6667L21 0Z" fill="#899BAA"/>
<path fill-rule="evenodd" clip-rule="evenodd" d="M25.6667 9.3335V4.66683H21.0001L25.6667 9.3335Z" fill="#BFCED9"/>
<rect x="1" y="14" width="26" height="10" rx="1" fill="#56AC22"/>
<path d="M6.75 22H7.69922L9.38281 19.3828H9.51953L11.5156 16.3125H10.5703L8.98438 18.8516H8.85156L6.75 22ZM6.84766 16.3125L8.85156 19.3867H8.88672L10.5703 22H11.6211L9.51953 18.8477H9.48047L7.89453 16.3125H6.84766ZM12.3828 22H16.1172V21.2891H13.2812V16.3125H12.3828V22ZM16.5586 20.4102C16.5586 20.9362 16.7643 21.3529 17.1758 21.6602C17.5872 21.9648 18.1328 22.1172 18.8125 22.1172C19.4948 22.1172 20.0352 21.9635 20.4336 21.6562C20.832 21.349 21.0312 20.9544 21.0312 20.4727C21.0312 19.9857 20.8672 19.6081 20.5391 19.3398C20.2135 19.0716 19.7122 18.8542 19.0352 18.6875C18.4466 18.5469 18.0547 18.4089 17.8594 18.2734C17.6667 18.138 17.5703 17.9453 17.5703 17.6953C17.5703 17.474 17.668 17.2917 17.8633 17.1484C18.0612 17.0026 18.3646 16.9297 18.7734 16.9297C19.1875 16.9297 19.4987 17.0169 19.707 17.1914C19.9154 17.3659 20.0195 17.5951 20.0195 17.8789V17.9336H20.918V17.8789C20.918 17.4102 20.724 17.013 20.3359 16.6875C19.9505 16.3594 19.4297 16.1953 18.7734 16.1953C18.1172 16.1953 17.6029 16.3464 17.2305 16.6484C16.8607 16.9505 16.6758 17.3294 16.6758 17.7852C16.6758 18.2461 16.8151 18.6003 17.0938 18.8477C17.375 19.0924 17.8516 19.2969 18.5234 19.4609C19.1953 19.625 19.6315 19.7773 19.832 19.918C20.0352 20.0586 20.1367 20.2513 20.1367 20.4961C20.1367 20.7617 20.0234 20.9766 19.7969 21.1406C19.5703 21.3021 19.2422 21.3828 18.8125 21.3828C18.388 21.3828 18.056 21.3021 17.8164 21.1406C17.5794 20.9766 17.4609 20.7331 17.4609 20.4102V20.3555H16.5586V20.4102Z" fill="white"/>
</svg>
