<svg width="28" height="28" viewBox="0 0 28 28" fill="none" xmlns="http://www.w3.org/2000/svg">
<path fill-rule="evenodd" clip-rule="evenodd" d="M4.66671 0C3.37804 0 2.33337 1.04467 2.33337 2.33333V25.6667C2.33337 26.9553 3.37804 28 4.66671 28H23.3334C24.622 28 25.6667 26.9553 25.6667 25.6667V0H4.66671ZM25.6667 1.83582e-05V4.66667L21 1.79503e-05L25.6667 1.83582e-05Z" fill="#DDE8ED"/>
<path fill-rule="evenodd" clip-rule="evenodd" d="M21 0V4.66665H25.6667L21 0Z" fill="#899BAA"/>
<path fill-rule="evenodd" clip-rule="evenodd" d="M25.6667 9.3335V4.66683H21.0001L25.6667 9.3335Z" fill="#BFCED9"/>
<rect x="1" y="14" width="26" height="10" rx="1" fill="#312E2C"/>
<path d="M8.13672 22V21.3555L11.3086 17.0234H8.18359V16.3125H12.4102V16.957L9.23438 21.2891H12.5391V22H8.13672ZM13.3555 22V16.3125H14.2539V22H13.3555ZM15.6055 22V16.3125H17.6641C18.349 16.3125 18.8737 16.4727 19.2383 16.793C19.6055 17.1133 19.7891 17.5417 19.7891 18.0781C19.7891 18.612 19.6055 19.043 19.2383 19.3711C18.8737 19.6966 18.349 19.8594 17.6641 19.8594H16.5V22H15.6055ZM16.5039 19.1484H17.6641C18.1172 19.1484 18.4349 19.0443 18.6172 18.8359C18.8021 18.6276 18.8945 18.375 18.8945 18.0781C18.8945 17.7786 18.8021 17.5286 18.6172 17.3281C18.4349 17.125 18.1172 17.0234 17.6641 17.0234H16.5039V19.1484Z" fill="white"/>
</svg>
